<svg xmlns="http://www.w3.org/2000/svg" width="24.458" height="32.899" viewBox="0 0 24.458 32.899">
  <g id="Icon_core-location-pin" data-name="Icon core-location-pin" transform="translate(-5.626 -1.237)">
    <path id="Path_70" data-name="Path 70" d="M17.854,8.971a4.5,4.5,0,1,0,4.5,4.5,4.5,4.5,0,0,0-4.5-4.5Zm0,6.75a2.25,2.25,0,1,1,2.25-2.25,2.25,2.25,0,0,1-2.25,2.25Z" fill="#fefefb"/>
    <path id="Path_71" data-name="Path 71" d="M26.5,4.817A12.229,12.229,0,0,0,7.608,20.139l8.5,13.051a2.083,2.083,0,0,0,3.49,0l8.5-13.051A12.229,12.229,0,0,0,26.5,4.817Zm-.286,14.094L17.854,31.747,9.493,18.911a9.979,9.979,0,1,1,16.723,0Z" fill="#fefefb"/>
  </g>
</svg>
