<svg id="Group_16" data-name="Group 16" xmlns="http://www.w3.org/2000/svg" xmlns:xlink="http://www.w3.org/1999/xlink" width="168.836" height="196.805" viewBox="0 0 168.836 196.805">
  <defs>
    <clipPath id="clip-path">
      <rect id="Rectangle_47" data-name="Rectangle 47" width="168.836" height="196.805" fill="none"/>
    </clipPath>
  </defs>
  <g id="Group_15" data-name="Group 15" clip-path="url(#clip-path)">
    <path id="Path_12" data-name="Path 12" d="M1.431,194.3l26.322-83.612S42.79,8.844,68.368,1.678a4.948,4.948,0,0,1,6.085,3.613c1.965,7.851,5.891,26.882,3.723,46.716" transform="translate(-0.323 -0.339)" fill="none" stroke="#b4d891" stroke-miterlimit="10" stroke-width="3"/>
    <path id="Path_13" data-name="Path 13" d="M68.331,67.02a94.433,94.433,0,0,1,14.036-1.161c11.125-.062,24.728,2,35.326,10.335A42.287,42.287,0,0,1,131.5,96.184s4.39,19.657,6.565,35.063v.008a102.438,102.438,0,0,1,1.177,12.929c0,10.839,37.161,48,39.484,67.354" transform="translate(-15.43 -14.871)" fill="none" stroke="#b4d891" stroke-miterlimit="10" stroke-width="3"/>
    <path id="Path_14" data-name="Path 14" d="M152.468,126.5v-.008c-2.175-15.406-6.565-35.063-6.565-35.063a42.287,42.287,0,0,0-13.812-19.99c12.279-1.75,33.592-7.517,61.037-25.688,12.325-8.152,6.255,37.285-40.66,80.748" transform="translate(-29.828 -10.115)" fill="#b1d68e"/>
    <path id="Path_15" data-name="Path 15" d="M68.322,60.726c-.255-8.067.79-21.623,10.529-22.707,6.612-.735,5.667,10.955,3.507,21.546" transform="translate(-15.42 -8.578)" fill="none" stroke="#b4d891" stroke-miterlimit="10" stroke-width="3"/>
    <path id="Path_16" data-name="Path 16" d="M41.531,91.5c18.828,7.324,39.019,23.636,46.761,21.313" transform="translate(-9.378 -20.661)" fill="none" stroke="#b4d891" stroke-miterlimit="10" stroke-width="3"/>
    <path id="Path_17" data-name="Path 17" d="M13.951,110.149c11.079,17.861,34.823,40.165,34.823,40.165" transform="translate(-3.15 -24.873)" fill="none" stroke="#b4d891" stroke-miterlimit="10" stroke-width="3"/>
    <path id="Path_18" data-name="Path 18" d="M34.032,90.417c-2.284,8.1-12.325,12.286-21.352,14.439-3.987-6.418-5.737-11.868-3.112-14.8,4.692-5.249,14.021-3.7,24.464.364" transform="translate(-1.879 -19.579)" fill="#b4d891" stroke="#b4d891" stroke-width="3"/>
    <path id="Path_19" data-name="Path 19" d="M90.294,95.271c-2.772,4.318-6.625,6.789-8.6,5.518s-1.335-5.8,1.438-10.119,6.625-6.789,8.6-5.518,1.335,5.8-1.438,10.119" transform="translate(-18.187 -19.153)" fill="#b4d891"/>
    <path id="Path_20" data-name="Path 20" d="M117.294,105.271c-2.772,4.318-6.625,6.789-8.6,5.518s-1.335-5.8,1.438-10.119,6.625-6.789,8.6-5.518,1.335,5.8-1.438,10.119" transform="translate(-24.284 -21.411)" fill="#b4d891"/>
    <path id="Path_21" data-name="Path 21" d="M164.7,108.739l-.774-14.71h11.613Z" transform="translate(-37.017 -21.233)" fill="#2c4943"/>
    <path id="Path_22" data-name="Path 22" d="M117.573,133.429a43.515,43.515,0,0,1-10.792,7.455" transform="translate(-24.112 -30.13)" fill="none" stroke="#b4d891" stroke-miterlimit="10" stroke-width="3"/>
    <path id="Path_23" data-name="Path 23" d="M70.719,144.443a33.282,33.282,0,0,1-7.788-3.414" transform="translate(-14.21 -31.846)" fill="none" stroke="#b4d891" stroke-miterlimit="10" stroke-width="3"/>
    <path id="Path_24" data-name="Path 24" d="M119.917,126.029s-.774,6.968,3.871,10.839" transform="translate(-27.068 -28.459)" fill="none" stroke="#b4d891" stroke-miterlimit="10" stroke-width="3"/>
    <path id="Path_25" data-name="Path 25" d="M108.557,174c-14.183,1.138-28.784-18.519-35.566-29.1a35.4,35.4,0,0,0,26.16-1.843C109.966,156.723,120.271,173.067,108.557,174Z" transform="translate(-16.482 -32.304)" fill="none" stroke="#b4d891" stroke-miterlimit="10" stroke-width="3"/>
    <path id="Path_26" data-name="Path 26" d="M92.431,147.529s5.622,8.775,6.194,10.357" transform="translate(-20.872 -33.314)" fill="none" stroke="#b4d891" stroke-linecap="round" stroke-miterlimit="10" stroke-width="3"/>
  </g>
</svg>
