<svg xmlns="http://www.w3.org/2000/svg" width="22.427" height="22.381" viewBox="0 0 22.427 22.381">
  <path id="Icon_ion-call-outline" data-name="Icon ion-call-outline" d="M23.685,19.805a18.5,18.5,0,0,0-3.679-2.457c-1.225-.617-1.325-.667-2.288.048-.642.477-1.069.9-1.82.743a9.75,9.75,0,0,1-3.814-2.489A10.074,10.074,0,0,1,9.537,11.8c-.161-.749.273-1.171.745-1.814.666-.907.616-1.058.046-2.283A16.749,16.749,0,0,0,7.864,4.029C7,3.174,7,3.325,6.441,3.557a8.071,8.071,0,0,0-1.3.694A3.9,3.9,0,0,0,3.572,5.9c-.313.669-.454,2.237,1.163,5.173a25.625,25.625,0,0,0,5.1,6.778,27.89,27.89,0,0,0,6.79,5.079c3.264,1.828,4.516,1.472,5.187,1.159a3.888,3.888,0,0,0,1.655-1.562,8.018,8.018,0,0,0,.7-1.3C24.391,20.67,24.542,20.67,23.685,19.805Z" transform="translate(-2.606 -2.682)" fill="none" stroke="#fefefc" stroke-miterlimit="10" stroke-width="1.5"/>
</svg>
