<svg xmlns="http://www.w3.org/2000/svg" xmlns:xlink="http://www.w3.org/1999/xlink" width="96.877" height="109.056" viewBox="0 0 96.877 109.056">
  <defs>
    <clipPath id="clip-path">
      <rect id="Rectangle_49" data-name="Rectangle 49" width="75.46" height="92.684" fill="#94bf8b"/>
    </clipPath>
  </defs>
  <g id="Group_33" data-name="Group 33" transform="matrix(0.966, 0.259, -0.259, 0.966, 23.988, 0.002)" opacity="0.511">
    <g id="Group_19" data-name="Group 19" transform="translate(0 -0.002)" clip-path="url(#clip-path)">
      <path id="Path_43" data-name="Path 43" d="M306.923,843c-.81,4.983-4.327,8.438-7.934,9.19s-7.263-.71-10.64-2.638q-.228-.13-.454-.263a14.938,14.938,0,0,0-15.4,0l-.454.262c-3.377,1.928-7.034,3.391-10.641,2.638s-7.124-4.207-7.933-9.19c-.825-5.073,1.277-10.245,3.957-13.844s5.976-6.218,8.59-9.911c2.3-3.256,4-7.237,5.962-10.909a14.753,14.753,0,0,1,4.318-5.393,6.725,6.725,0,0,1,7.8,0,14.762,14.762,0,0,1,4.318,5.393c1.96,3.672,3.658,7.653,5.962,10.909,2.614,3.693,5.91,6.312,8.59,9.911s4.781,8.772,3.957,13.844" transform="translate(-242.466 -759.704)" fill="#94bf8b"/>
      <path id="Path_44" data-name="Path 44" d="M415.591,115.4a7.315,7.315,0,0,1-8.8,1.752c-3.942-1.867-6.422-6.641-6.842-11.463a27.638,27.638,0,0,1,2.96-13.928c.85-1.81,3-4.822,5.767-4.822,5.092,0,9.08,8.31,9.3,18.787.064,3.06-.547,7.428-2.38,9.673" transform="translate(-382.792 -82.382)" fill="#94bf8b"/>
      <path id="Path_45" data-name="Path 45" d="M38.925,562.25a8.051,8.051,0,0,1-8,4.721c-4.193-.416-7.661-4.113-9.172-8.57s-1.316-9.541-.385-14.319c.395-2.022,1.753-5.642,4.393-6.6,4.859-1.765,10.581,4.785,13.2,14.71.766,2.9,1.189,7.28-.042,10.058" transform="translate(-19.764 -509.06)" fill="#94bf8b"/>
      <path id="Path_46" data-name="Path 46" d="M945.273,115.4a7.315,7.315,0,0,0,8.8,1.752c3.942-1.867,6.422-6.641,6.842-11.463a27.638,27.638,0,0,0-2.96-13.928c-.85-1.81-3-4.822-5.767-4.822-5.092,0-9.08,8.31-9.3,18.787-.063,3.06.548,7.428,2.38,9.673" transform="translate(-902.615 -82.382)" fill="#94bf8b"/>
      <path id="Path_47" data-name="Path 47" d="M1300.6,562.25a8.051,8.051,0,0,0,8,4.721c4.194-.416,7.661-4.113,9.173-8.57s1.316-9.541.385-14.319c-.395-2.022-1.753-5.642-4.394-6.6-4.859-1.765-10.581,4.785-13.2,14.71-.766,2.9-1.189,7.28.042,10.058" transform="translate(-1244.301 -509.06)" fill="#94bf8b"/>
      <path id="Path_48" data-name="Path 48" d="M281.839,741.762c-1.939-2.211-4.052-4.186-5.9-6.513a44.722,44.722,0,0,1-4.691-7.851c-1.348-2.687-2.615-5.549-4.464-7.781a8.728,8.728,0,0,0-7.12-3.451,8.152,8.152,0,0,0-3.953,1.238,11.162,11.162,0,0,0-2.912,2.781,54.6,54.6,0,0,0-4.423,8.017,40.262,40.262,0,0,1-4.817,7.7c-1.9,2.267-4.014,4.235-5.916,6.5a23.794,23.794,0,0,0-4.381,7.434,16.5,16.5,0,0,0-.743,8.892,12.319,12.319,0,0,0,3.692,6.518,10.306,10.306,0,0,0,6.654,2.685,17.31,17.31,0,0,0,8.45-2.342c1.215-.635,2.393-1.4,3.628-1.89a13.461,13.461,0,0,1,3.663-.928l.275-.029.059-.006q.217-.017.434-.026.5-.022,1.01-.01.23.005.459.019l.23.015.125.011q.5.049,1.005.134a13.917,13.917,0,0,1,3.582,1.116c1.28.6,2.491,1.4,3.766,2.012a21.067,21.067,0,0,0,4.189,1.547,11.192,11.192,0,0,0,7.838-.74,11.46,11.46,0,0,0,4.9-5.091A13.176,13.176,0,0,0,287.646,758a17.239,17.239,0,0,0-1.178-8.961,25.153,25.153,0,0,0-4.629-7.276m.77,22.6a9.239,9.239,0,0,1-2.591,1.822l-.022.01-.036.015-.138.059q-.173.072-.348.136-.351.129-.71.224l-.093.022-.2.043q-.241.048-.483.083c-.161.023-.322.042-.484.057.042,0,.14-.008-.049,0-.113.007-.226.012-.339.015-.307.009-.613,0-.919-.015l-.073,0-.073-.008-.193-.02q-.29-.033-.579-.079a12.033,12.033,0,0,1-1.848-.444,22.125,22.125,0,0,1-3.755-1.631,35.677,35.677,0,0,0-3.761-1.923,16,16,0,0,0-3.825-.979,16.238,16.238,0,0,0-7.885.945,32.335,32.335,0,0,0-3.712,1.884,22.681,22.681,0,0,1-3.75,1.659,12.191,12.191,0,0,1-1.8.458,8.727,8.727,0,0,1-1.886.159q-.242,0-.484-.019c-.19-.011-.091-.007-.05,0-.1-.009-.194-.02-.29-.031-.319-.04-.634-.1-.95-.167l-.011,0-.019-.005-.141-.039q-.176-.051-.351-.11-.375-.126-.74-.289l-.047-.022c-.068-.033-.137-.066-.2-.1-.114-.058-.226-.118-.338-.181q-.354-.2-.7-.431a8.977,8.977,0,0,1-1.2-.978,10.876,10.876,0,0,1-2.067-2.725,13.4,13.4,0,0,1-1.338-7.946,19.867,19.867,0,0,1,2.941-7.968,40.6,40.6,0,0,1,5.345-6.4,40.775,40.775,0,0,0,5.415-6.759c1.585-2.591,2.883-5.42,4.293-8.154,1.246-2.417,2.644-4.885,4.749-6.276a6.1,6.1,0,0,1,1.6-.772,4.956,4.956,0,0,1,1.545-.238c.132,0,.263.008.4.012h.021l.045.006c.073.01.146.017.219.027a4.406,4.406,0,0,1,.78.166,6.036,6.036,0,0,1,1.643.772c2.11,1.375,3.516,3.837,4.762,6.252,1.4,2.717,2.692,5.529,4.261,8.111a40.323,40.323,0,0,0,5.4,6.778,41.622,41.622,0,0,1,5.363,6.393,19.967,19.967,0,0,1,2.98,7.947,15.124,15.124,0,0,1-.049,4.3,11.657,11.657,0,0,1-3.225,6.36" transform="translate(-222.283 -678.648)" fill="#94bf8b"/>
      <path id="Path_49" data-name="Path 49" d="M625.389,20.962a.336.336,0,0,1-.066-.025h0c.049.028.079.033.069.026" transform="translate(-598.611 -19.839)" fill="#94bf8b"/>
      <path id="Path_50" data-name="Path 50" d="M381.577,31.383a10.815,10.815,0,0,0,6.017,4.786,9.429,9.429,0,0,0,4,.266,8.1,8.1,0,0,0,3.6-1.4,7.291,7.291,0,0,0,1.346-1.272,9.852,9.852,0,0,0,1.651-3.488,20.716,20.716,0,0,0,.7-4.183,30.04,30.04,0,0,0-.057-4.437,37.841,37.841,0,0,0-.634-4.627,25.068,25.068,0,0,0-2.652-7.479,9.65,9.65,0,0,0-4.194-4.166A6.144,6.144,0,0,0,384.677,6.5a10.942,10.942,0,0,0-2.163,2.724,25.984,25.984,0,0,0-1.771,4.1A25.759,25.759,0,0,0,379.117,23.5a17.011,17.011,0,0,0,2.461,7.887m.266-15.936a33.889,33.889,0,0,1,1.691-4.617A13.448,13.448,0,0,1,385.2,7.965a8.79,8.79,0,0,1,1.11-1.194,7.031,7.031,0,0,1,.681-.528q.171-.116.348-.219l.11-.062.051-.028.145-.07q.185-.085.374-.154c.036-.013.233-.071.086-.031.07-.019.14-.039.21-.055.039-.009.181-.066.213-.045,0,0-.156.02-.058.011.031,0,.062-.008.093-.012a1.31,1.31,0,0,0,.188-.017c-.216.058-.018,0,.061,0l.093,0c.1.009.192.02.289.032l.115.023q.144.031.287.071l-.006,0,.009,0h0a.229.229,0,0,1,.062.024c.024.007.049.013.07.02q.145.051.288.112.123.052.244.11c.04.019.107.055.085.042l.1.053a6.807,6.807,0,0,1,1.047.73c.184.155.3.264.447.409q.249.249.483.52a12.065,12.065,0,0,1,.911,1.208,21.552,21.552,0,0,1,2.774,6.692,36.873,36.873,0,0,1,1.071,8.779,23.216,23.216,0,0,1-.332,3.955,14.446,14.446,0,0,1-1.113,3.758,7.406,7.406,0,0,1-.907,1.468,6.283,6.283,0,0,1-1.245,1.158,5.58,5.58,0,0,1-1.427.744l-.178.063-.108.034c-.125.035-.25.07-.376.1q-.107.025-.215.047l-.09.018-.162.025q-.109.015-.218.026t-.219.02l-.024,0a4.2,4.2,0,0,0-.432.008l-.162,0c-.025,0-.051,0-.075,0q-.22-.016-.44-.045l-.182-.026-.074-.014q-.218-.042-.433-.1l-.184-.049-.122-.035-.03-.009-.124-.042q-.12-.041-.24-.087a7.238,7.238,0,0,1-1.467-.752,10.526,10.526,0,0,1-2.627-2.478,15.74,15.74,0,0,1-2.918-7.152,23.079,23.079,0,0,1,.788-9.581" transform="translate(-362.885 -4.598)" fill="#94bf8b"/>
      <path id="Path_51" data-name="Path 51" d="M12.3,482.082a9,9,0,0,0,6.7-3.464,8.717,8.717,0,0,0,1.008-1.695,11.324,11.324,0,0,0,.8-4.2,21.536,21.536,0,0,0-.383-4.461,31.388,31.388,0,0,0-1.215-4.457,33.572,33.572,0,0,0-1.725-4.126A20.724,20.724,0,0,0,13.13,453.6a8.458,8.458,0,0,0-5.41-2.449,5.786,5.786,0,0,0-3.049.784,7.3,7.3,0,0,0-2.47,2.655,18.816,18.816,0,0,0-2.018,7.568A26.348,26.348,0,0,0,.97,472.555a15.063,15.063,0,0,0,4.208,6.8,9.971,9.971,0,0,0,7.125,2.727m-.71-1.123-.184-.01-.05,0-.024,0a8.054,8.054,0,0,1-.827-.133q-.11-.023-.219-.05l-.133-.035-.12-.035q-.107-.033-.214-.068-.409-.137-.808-.315c-.069-.031-.136-.064-.2-.095l-.006,0-.047-.024q-.2-.1-.4-.217-.381-.218-.746-.473-.176-.122-.347-.253l-.158-.122-.078-.062-.09-.074-.029-.025-.076-.065q-.089-.077-.176-.156-.175-.158-.345-.323a13.055,13.055,0,0,1-1.208-1.36,12.493,12.493,0,0,1-1-1.5,15.532,15.532,0,0,1-.857-1.733,22.267,22.267,0,0,1-1.452-9.4,37.261,37.261,0,0,1,.555-5.032q.053-.3.111-.6c.016-.084.033-.167.049-.251h0l.011-.051q.075-.332.166-.658a13.429,13.429,0,0,1,.5-1.461,11.555,11.555,0,0,1,.725-1.475q.1-.177.214-.348l.006-.009.009-.013.053-.078q.063-.09.127-.179a7.346,7.346,0,0,1,.531-.648q.136-.147.28-.284.077-.074.157-.144l.069-.06h0a5.132,5.132,0,0,1,.671-.452l.092-.049c.044-.02.088-.04.132-.059.113-.048.227-.09.342-.127l.126-.039h0c.09-.021.179-.042.27-.059s.184-.031.277-.043l.061-.007.046,0a5.437,5.437,0,0,1,.55,0l.1.011q.152.019.3.048t.282.061l.016,0,.12.035q.3.092.586.213c.095.04.188.082.282.125l.015.007.152.079a9.043,9.043,0,0,1,1.159.746q.139.1.276.215c.046.037.124.1.031.024l.169.144q.278.241.544.5a15.505,15.505,0,0,1,1.1,1.2,19.992,19.992,0,0,1,2.011,2.932,33.979,33.979,0,0,1,3.211,7.969,19.294,19.294,0,0,1,.558,8.261,8.03,8.03,0,0,1-.531,1.751,7.028,7.028,0,0,1-.891,1.5,7.918,7.918,0,0,1-.59.676q-.151.154-.307.3c-.048.044-.1.088-.147.131l-.074.064-.02.018-.018.014a9.028,9.028,0,0,1-1.431.925l-.088.042-.175.079q-.205.089-.414.167t-.39.134c-.071.022-.141.043-.212.064h0l-.058.015a7.9,7.9,0,0,1-.831.159l-.186.023c-.033,0-.069,0-.1.009-.125.007-.249.014-.374.016s-.267,0-.4,0" transform="translate(0 -427.525)" fill="#94bf8b"/>
      <path id="Path_52" data-name="Path 52" d="M1117.826,32.39l-.041.018-.014.007a.328.328,0,0,0,.055-.025" transform="translate(-1070.028 -30.694)" fill="#94bf8b"/>
      <path id="Path_53" data-name="Path 53" d="M923.588,27.766a8.188,8.188,0,0,0,1,1.615,7.986,7.986,0,0,0,6.885,2.78,10.037,10.037,0,0,0,6.848-3.714,16.177,16.177,0,0,0,3.356-7.505A22.931,22.931,0,0,0,941.025,11a34.173,34.173,0,0,0-1.753-4.9,14.593,14.593,0,0,0-1.789-3.112,8.513,8.513,0,0,0-2.9-2.448,5.42,5.42,0,0,0-3.5-.422,8.041,8.041,0,0,0-4.7,3.355,20.919,20.919,0,0,0-3.073,6.864,37.569,37.569,0,0,0-1.235,9.293,23.168,23.168,0,0,0,.324,4.084,15.475,15.475,0,0,0,1.183,4.053m6.646,3.176-.024,0c-.133-.009-.03,0,.024,0m5.485-2.006h0M923.946,17.449a38.556,38.556,0,0,1,.563-4.507A25.619,25.619,0,0,1,926.926,5.7c.131-.247.269-.487.41-.726l.018-.031.018-.028.111-.176c.074-.115.149-.229.226-.342a11.716,11.716,0,0,1,.9-1.164q.235-.266.486-.51c.063-.061.127-.121.191-.18l.078-.068.132-.11q.253-.206.519-.385.126-.085.255-.163l.119-.07.047-.026-.028.012.042-.019.042-.019c.155-.07.307-.152.465-.214q.133-.052.268-.1l.073-.022.049-.013a4.764,4.764,0,0,1,.552-.106l.068-.008h.019c.1-.006.21-.009.314-.008.072,0,.144,0,.216.008l.02,0c.144.022.286.046.428.081l.07.018c.054.019.109.036.163.055q.2.074.4.167c.052.024.1.05.154.075h0c.027.016.055.031.082.047q.19.111.374.237t.334.245c.05.039.1.079.15.12l.074.062.073.063.1.091c.054.051.109.1.162.156q.159.157.311.324.276.3.532.629t.485.669c.071.105.139.213.207.32l.019.031.024.04c.033.056.066.111.1.167a25.14,25.14,0,0,1,1.7,3.891,25.559,25.559,0,0,1,1.683,9.662,16.623,16.623,0,0,1-2.129,7.65,12.608,12.608,0,0,1-.994,1.467,11.648,11.648,0,0,1-1.256,1.369l-.072.066-.017.015-.154.132q-.182.152-.369.295-.363.277-.744.514-.185.115-.374.221c-.049.027-.177.092-.055.031-.08.04-.159.081-.239.12a7.858,7.858,0,0,1-.767.322q-.105.038-.211.072l-.076.025c.016-.006-.142.04-.169.048q-.108.028-.216.053a7.907,7.907,0,0,1-.842.147l-.075.008-.161.011q-.22.013-.441.013-.2,0-.409-.01l-.154-.01c-.036-.007-.075-.007-.111-.011a7.426,7.426,0,0,1-.834-.148l-.183-.046-.009,0a.229.229,0,0,1-.05-.013l-.028-.009h0c-.129-.041-.258-.084-.386-.132s-.253-.1-.378-.155q-.086-.038-.172-.079l-.085-.041-.073-.037-.11-.061q-.082-.047-.164-.1-.189-.116-.372-.246t-.333-.252c-.059-.047-.116-.1-.174-.145l0,0-.052-.049a6.941,6.941,0,0,1-.609-.653,7.181,7.181,0,0,1-.463-.651c0,.007-.059-.1-.074-.13q-.057-.1-.113-.206-.111-.211-.212-.429a12.508,12.508,0,0,1-.668-1.831,19.561,19.561,0,0,1-.664-3.909,29.054,29.054,0,0,1,.02-4.157" transform="translate(-882.694 0.002)" fill="#94bf8b"/>
      <path id="Path_54" data-name="Path 54" d="M1084.766,586.4h0a.53.53,0,0,1,.078.022c.011,0-.066-.033-.08-.023" transform="translate(-1038.432 -555.684)" fill="#94bf8b"/>
      <path id="Path_55" data-name="Path 55" d="M1299.531,469.309a36.832,36.832,0,0,0-.558-5.315,15.858,15.858,0,0,0-.9-3.277,9.563,9.563,0,0,0-1.808-2.957,5.539,5.539,0,0,0-2.911-1.65,7.46,7.46,0,0,0-5.78,1.25,16.356,16.356,0,0,0-4.559,5.169,33.64,33.64,0,0,0-3.438,8.273,19.719,19.719,0,0,0-.634,8.7,8.919,8.919,0,0,0,.581,1.909,8.485,8.485,0,0,0,5.692,4.673,9.765,9.765,0,0,0,7.69-1.206,13.43,13.43,0,0,0,4.924-5.872,22.217,22.217,0,0,0,1.7-9.694m-12.14,16.458.083,0a.261.261,0,0,1-.083,0m9.581-9.292a14.952,14.952,0,0,1-3.833,6.7,10.288,10.288,0,0,1-2.8,1.961c-.209.1-.516.216-.767.3-.132.045-.265.083-.4.124h0l-.064.016q-.125.031-.25.059c-.136.03-.273.054-.41.079l-.023,0-.021,0c-.086.011-.171.021-.257.03l-.184.016-.029,0c-.136-.009-.277.007-.414,0h-.043l-.186-.013q-.108-.009-.217-.021l-.112-.013-.171-.027-.185-.035c-.13-.026-.259-.057-.388-.089.027.006-.1-.028-.136-.038l-.181-.057q-.211-.068-.419-.149a5.793,5.793,0,0,1-.706-.319,7.775,7.775,0,0,1-2.62-2.207,8.011,8.011,0,0,1-.919-1.559,10.7,10.7,0,0,1-.74-3.968,21.464,21.464,0,0,1,.349-4.274,29.426,29.426,0,0,1,1.1-4.135,33.574,33.574,0,0,1,1.63-4.027,21.381,21.381,0,0,1,4.085-5.962,9.941,9.941,0,0,1,2.227-1.68c.093-.05.187-.1.281-.144l.113-.053.1-.042q.289-.122.586-.216l.13-.039h0l.012,0c.1-.024.2-.048.3-.067l.121-.022.279-.027.1,0h.115c.084.007.168.016.251.025l.147.028a2.371,2.371,0,0,0,.254.059l-.024,0,.035.008.147.048a2.77,2.77,0,0,1,.622.284,6.413,6.413,0,0,1,2.195,2.373,17.948,17.948,0,0,1,1.918,7.12,26.588,26.588,0,0,1-.594,9.95" transform="translate(-1224.083 -432.077)" fill="#94bf8b"/>
      <path id="Path_56" data-name="Path 56" d="M1603.7,469.844c-.059-.01-.125-.011,0,0" transform="translate(-1535.134 -445.229)" fill="#94bf8b"/>
    </g>
  </g>
</svg>
