<svg xmlns="http://www.w3.org/2000/svg" xmlns:xlink="http://www.w3.org/1999/xlink" width="124.797" height="111.684" viewBox="0 0 124.797 111.684">
  <defs>
    <clipPath id="clip-path">
      <rect id="Rectangle_45" data-name="Rectangle 45" width="117.742" height="51.118" fill="none" stroke="#224a43" stroke-width="1"/>
    </clipPath>
  </defs>
  <g id="Group_13" data-name="Group 13" transform="matrix(0.799, 0.602, -0.602, 0.799, 30.764, 0)">
    <g id="Group_12" data-name="Group 12" clip-path="url(#clip-path)">
      <path id="Path_3" data-name="Path 3" d="M103.111,51.118l-.269,0a14.621,14.621,0,0,1-13.268-9.074,7.339,7.339,0,0,0-6.8-4.592H34.963a7.339,7.339,0,0,0-6.8,4.592A14.621,14.621,0,0,1,14.9,51.116l-.269,0A14.705,14.705,0,0,1,0,36.507a14.473,14.473,0,0,1,1.588-6.652,14.764,14.764,0,0,1,3.319-4.3,14.762,14.762,0,0,1-3.319-4.3A14.572,14.572,0,0,1,4.405,4.209,14.592,14.592,0,0,1,28.167,9.077a7.339,7.339,0,0,0,6.8,4.592H82.779a7.339,7.339,0,0,0,6.8-4.592,14.641,14.641,0,0,1,28.167,5.535,14.474,14.474,0,0,1-1.588,6.652,14.764,14.764,0,0,1-3.319,4.3,14.765,14.765,0,0,1,3.319,4.3,14.668,14.668,0,0,1-13.043,21.264M34.963,35.529H82.779a9.253,9.253,0,0,1,8.572,5.784,12.72,12.72,0,0,0,24.47-4.808,12.571,12.571,0,0,0-1.379-5.778,12.83,12.83,0,0,0-3.7-4.4.96.96,0,0,1,0-1.535,12.828,12.828,0,0,0,3.7-4.4A12.746,12.746,0,0,0,102.877,1.923,12.7,12.7,0,0,0,91.352,9.806a9.253,9.253,0,0,1-8.572,5.784H34.963A9.253,9.253,0,0,1,26.39,9.806a12.72,12.72,0,0,0-24.47,4.808A12.569,12.569,0,0,0,3.3,20.392a12.829,12.829,0,0,0,3.7,4.4.96.96,0,0,1,0,1.535,12.832,12.832,0,0,0-3.7,4.4A12.746,12.746,0,0,0,14.865,49.2,12.7,12.7,0,0,0,26.39,41.312a9.253,9.253,0,0,1,8.572-5.784" transform="translate(0 0)" stroke="#224a43" stroke-width="1"/>
    </g>
  </g>
</svg>
