<svg xmlns="http://www.w3.org/2000/svg" width="38.097" height="32.252" viewBox="0 0 38.097 32.252">
  <g id="Group_209" data-name="Group 209" transform="translate(-22026 -3379.167)">
    <path id="Path_145" data-name="Path 145" d="M35.636,2.033C36.471,1.378,37.3.713,38.088,0c0,.336,0,.673.006,1.009-.013,4.315.014,8.631,0,12.945a6.714,6.714,0,0,0-3.008.263,7.2,7.2,0,0,0-2.045,1.8,10.973,10.973,0,0,1-3.313,2.4c-1.039.507-2.169.823-3.165,1.419a13.748,13.748,0,0,0-2.7,2.144,28.107,28.107,0,0,0-3.628,3.891A20.712,20.712,0,0,1,18.87,27.62a.808.808,0,0,1-.568.312,1.123,1.123,0,0,1-.66-.293,3.119,3.119,0,0,1-1.082-2.388A5.653,5.653,0,0,1,17.8,21.633a20.167,20.167,0,0,1,2.549-2.6,3.46,3.46,0,0,0,.952-1.392,1.558,1.558,0,0,0-.358-1.321,3.668,3.668,0,0,0-1.959-1.23,4.976,4.976,0,0,0-1.734,0,.636.636,0,0,0-.42.187,18.512,18.512,0,0,1-2.2,2.3,6.274,6.274,0,0,1-1.59.8,4.621,4.621,0,0,1-.391,2.458,4.615,4.615,0,0,1-.961,1.57c-.106.116-.281.216-.22.4a3.14,3.14,0,0,1-.7,2.359A4.8,4.8,0,0,1,9.5,26.343a1.611,1.611,0,0,1-1.488.042c-.116-.061-.244-.162-.222-.309A31.788,31.788,0,0,1,8.447,20.3,8.911,8.911,0,0,0,6.7,22.137a3.326,3.326,0,0,1-1.034,1.037,4.2,4.2,0,0,1-2.009.7,2.226,2.226,0,0,1-1.184-.3.693.693,0,0,1-.325-.694,3.617,3.617,0,0,1,.506-.841c.5-.7.875-1.481,1.309-2.223a26.324,26.324,0,0,1,1.893-2.787,14.833,14.833,0,0,1-4.284.063A2.32,2.32,0,0,1,0,15.508,1.681,1.681,0,0,1,.63,15.1c.966-.428,1.944-.83,2.912-1.256,1.622-.725,3.305-1.3,4.951-1.963-1.249-.166-2.518-.11-3.764-.3A1.525,1.525,0,0,1,3.542,10.8a2.165,2.165,0,0,1-.285-1.33.748.748,0,0,1,.72-.544A16.6,16.6,0,0,0,6.926,8.5q3.529-.841,7.034-1.781c1.446-.386,2.875-.847,4.349-1.115a17.769,17.769,0,0,1,3.1-.187c2.219-.017,4.424-.283,6.633-.466a14.608,14.608,0,0,0,5.046-1.239,14.79,14.79,0,0,0,2.547-1.683" transform="translate(22026 3379.167)" fill="#f4ba61"/>
    <path id="Path_146" data-name="Path 146" d="M119.914,302.241a3.831,3.831,0,0,1,3.271.956,3.983,3.983,0,0,1,1.109,2.184,3.46,3.46,0,0,1-.6,2.607,3.918,3.918,0,0,1-2.324,1.62,3.756,3.756,0,0,1-3.975-5.8,3.612,3.612,0,0,1,2.517-1.571m.1.512a3.538,3.538,0,0,0-2.244,1.339,3.337,3.337,0,0,0,.449,4.23,3.427,3.427,0,0,0,3.277.646,3.2,3.2,0,0,0,2.071-1.775,2.866,2.866,0,0,0,.021-2.513,3.333,3.333,0,0,0-3.574-1.928" transform="translate(21918.838 3101.703)" fill="#febd08"/>
    <path id="Path_147" data-name="Path 147" d="M125.64,308.623a3.333,3.333,0,0,1,3.574,1.928,2.866,2.866,0,0,1-.021,2.513,3.2,3.2,0,0,1-2.071,1.775,3.427,3.427,0,0,1-3.277-.646,3.337,3.337,0,0,1-.449-4.23,3.538,3.538,0,0,1,2.244-1.339m.481.965c-.488.223-1,.693-.885,1.284a1.3,1.3,0,0,0,.839,1.1c.281.149.631.207.834.475a.5.5,0,0,1,.119.483.3.3,0,0,1-.452.178.842.842,0,0,1-.018-.244c-.232-.217-.41.143-.619.2a5.507,5.507,0,0,0-.565-.15.336.336,0,0,0-.193.522c.246.16.554.184.808.328.053.145,0,.308.048.455.122.1.29,0,.421-.038.032-.114.065-.227.1-.34.291-.1.625-.059.892-.235a1.25,1.25,0,0,0,.488-.657,1.378,1.378,0,0,0-.422-1.349,5.684,5.684,0,0,1-1.11-.7.408.408,0,0,1,.27-.7,1.647,1.647,0,0,1,.5.263.814.814,0,0,0,.353-.49c-.195-.3-.59-.3-.887-.436l-.061-.29c-.257-.079-.407.112-.457.34m-1.775,1.66a1.375,1.375,0,0,0,0,.557,1.784,1.784,0,0,0,.648.095c.088-.19.233-.46.07-.644a1,1,0,0,0-.717-.008" transform="translate(21913.207 3095.833)" fill="#fe9709"/>
    <path id="Path_148" data-name="Path 148" d="M151.594,316.888c.049-.227.2-.418.457-.34l.061.29c.3.141.692.133.887.436a.814.814,0,0,1-.353.49,1.645,1.645,0,0,0-.5-.263.408.408,0,0,0-.27.7,5.684,5.684,0,0,0,1.11.7,1.378,1.378,0,0,1,.422,1.349,1.25,1.25,0,0,1-.488.657c-.267.176-.6.134-.892.235-.031.114-.064.227-.1.34-.131.038-.3.142-.421.038-.052-.147,0-.31-.048-.455-.254-.144-.562-.168-.808-.328a.336.336,0,0,1,.193-.522,5.538,5.538,0,0,1,.565.15c.209-.057.387-.417.619-.2a.841.841,0,0,0,.018.244.3.3,0,0,0,.452-.178.5.5,0,0,0-.119-.484c-.2-.268-.552-.326-.834-.475a1.3,1.3,0,0,1-.839-1.1c-.115-.592.4-1.061.885-1.285" transform="translate(21887.734 3088.534)" fill="#ffbf08"/>
    <path id="Path_149" data-name="Path 149" d="M140.883,340.492a1,1,0,0,1,.717.008c.163.184.017.454-.07.644a1.782,1.782,0,0,1-.648-.095,1.374,1.374,0,0,1,0-.557" transform="translate(21896.672 3066.589)" fill="#febc07"/>
    <rect id="Rectangle_133" data-name="Rectangle 133" width="38.097" height="32.252" transform="translate(22026 3379.167)" fill="none"/>
  </g>
</svg>
