<svg xmlns="http://www.w3.org/2000/svg" xmlns:xlink="http://www.w3.org/1999/xlink" width="39.565" height="39.523" viewBox="0 0 39.565 39.523">
  <defs>
    <clipPath id="clip-path">
      <rect id="Rectangle_49" data-name="Rectangle 49" width="32.944" height="33" fill="#ee7331"/>
    </clipPath>
  </defs>
  <g id="Group_31" data-name="Group 31" transform="matrix(0.225, -0.974, 0.974, 0.225, 0.002, 32.1)">
    <g id="Group_19" data-name="Group 19" transform="translate(0 -0.002)" clip-path="url(#clip-path)">
      <path id="Path_43" data-name="Path 43" d="M276.7,816.4a4.275,4.275,0,0,1-3.464,3.272,8.013,8.013,0,0,1-4.645-.939l-.2-.094a7.805,7.805,0,0,0-6.724,0l-.2.093a8.014,8.014,0,0,1-4.645.939,4.275,4.275,0,0,1-3.463-3.272,5.926,5.926,0,0,1,1.727-4.929c1.17-1.282,2.609-2.214,3.75-3.529a35.192,35.192,0,0,0,2.6-3.884,5.617,5.617,0,0,1,1.885-1.92,3.488,3.488,0,0,1,3.407,0,5.62,5.62,0,0,1,1.885,1.92,35.185,35.185,0,0,0,2.6,3.884c1.141,1.315,2.58,2.247,3.75,3.529A5.927,5.927,0,0,1,276.7,816.4" transform="translate(-248.561 -786.741)" fill="#ee7331"/>
      <path id="Path_44" data-name="Path 44" d="M406.734,97.068a3.712,3.712,0,0,1-3.843.624,4.928,4.928,0,0,1-2.987-4.081,8.35,8.35,0,0,1,1.292-4.959,3.254,3.254,0,0,1,2.518-1.717c2.223,0,3.964,2.959,4.059,6.689a5.089,5.089,0,0,1-1.039,3.444" transform="translate(-392.415 -85.314)" fill="#ee7331"/>
      <path id="Path_45" data-name="Path 45" d="M28.626,546.115a3.694,3.694,0,0,1-3.492,1.681,4.9,4.9,0,0,1-4-3.051,8.312,8.312,0,0,1-.168-5.1,3.239,3.239,0,0,1,1.918-2.35c2.121-.628,4.619,1.7,5.764,5.237a5.065,5.065,0,0,1-.018,3.581" transform="translate(-20.261 -527.177)" fill="#ee7331"/>
      <path id="Path_46" data-name="Path 46" d="M943.93,97.068a3.712,3.712,0,0,0,3.843.624,4.928,4.928,0,0,0,2.987-4.081,8.349,8.349,0,0,0-1.292-4.959,3.254,3.254,0,0,0-2.518-1.717c-2.223,0-3.964,2.959-4.059,6.689a5.088,5.088,0,0,0,1.039,3.444" transform="translate(-925.307 -85.314)" fill="#ee7331"/>
      <path id="Path_47" data-name="Path 47" d="M1300.16,546.115a3.694,3.694,0,0,0,3.491,1.681,4.9,4.9,0,0,0,4-3.051,8.312,8.312,0,0,0,.168-5.1,3.239,3.239,0,0,0-1.918-2.35c-2.121-.628-4.62,1.7-5.764,5.237a5.065,5.065,0,0,0,.018,3.581" transform="translate(-1275.583 -527.177)" fill="#ee7331"/>
      <path id="Path_48" data-name="Path 48" d="M253.872,725.272c-.846-.787-1.769-1.491-2.577-2.319a15.658,15.658,0,0,1-2.048-2.8,14.1,14.1,0,0,0-1.949-2.77,4.177,4.177,0,0,0-4.834-.788,4.6,4.6,0,0,0-1.271.99,18.735,18.735,0,0,0-1.931,2.854,14.273,14.273,0,0,1-2.1,2.741c-.828.807-1.752,1.508-2.583,2.313a8.312,8.312,0,0,0-1.913,2.647,4.861,4.861,0,0,0-.325,3.166,4.276,4.276,0,0,0,1.612,2.321,5.092,5.092,0,0,0,2.9.956,8.893,8.893,0,0,0,3.689-.834c.53-.226,1.045-.5,1.584-.673a6.979,6.979,0,0,1,1.6-.33l.12-.01.026,0,.189-.009q.22-.008.441,0l.2.007.1.005.055,0q.22.018.439.048a7.115,7.115,0,0,1,1.564.4c.559.213,1.088.5,1.644.716a10.59,10.59,0,0,0,1.829.551,5.9,5.9,0,0,0,3.422-.264,4.608,4.608,0,0,0,2.138-1.812,4.1,4.1,0,0,0,.513-1.323,5.113,5.113,0,0,0-.514-3.191,8.962,8.962,0,0,0-2.021-2.59m.336,8.046a4.14,4.14,0,0,1-1.131.649l-.009,0-.016.005-.06.021q-.075.026-.152.049-.153.046-.31.08l-.041.008-.089.015q-.105.017-.211.029c-.07.008-.141.015-.211.02h-.022l-.148.005c-.134,0-.268,0-.4-.005h-.032l-.032,0-.084-.007q-.127-.012-.253-.028A6.255,6.255,0,0,1,250.2,734a10.909,10.909,0,0,1-1.639-.581,17.156,17.156,0,0,0-1.642-.685,8.3,8.3,0,0,0-1.67-.349,8.587,8.587,0,0,0-3.442.336,15.553,15.553,0,0,0-1.621.671,11.148,11.148,0,0,1-1.637.591,6.33,6.33,0,0,1-.785.163,4.652,4.652,0,0,1-.823.057c-.07,0-.141,0-.211-.007h-.022l-.127-.011c-.139-.014-.277-.037-.415-.06h0l-.008,0-.062-.014q-.077-.018-.153-.039-.163-.045-.323-.1l-.021-.008-.089-.036q-.074-.031-.148-.065-.155-.071-.3-.153a3.869,3.869,0,0,1-.524-.348,4.071,4.071,0,0,1-.9-.97,4.017,4.017,0,0,1-.584-2.829,6.325,6.325,0,0,1,1.284-2.837,15.63,15.63,0,0,1,2.334-2.28,15.507,15.507,0,0,0,2.364-2.407c.692-.923,1.259-1.93,1.874-2.9a6.018,6.018,0,0,1,2.073-2.234,2.957,2.957,0,0,1,.7-.275,2.618,2.618,0,0,1,.675-.085c.058,0,.115,0,.172,0h.009l.02,0,.1.01a2.3,2.3,0,0,1,.341.059,2.939,2.939,0,0,1,.717.275,5.956,5.956,0,0,1,2.079,2.226c.612.967,1.175,1.969,1.86,2.888a15.311,15.311,0,0,0,2.358,2.413,16.047,16.047,0,0,1,2.341,2.276,6.372,6.372,0,0,1,1.3,2.829,4.4,4.4,0,0,1-.021,1.532,3.946,3.946,0,0,1-1.408,2.264" transform="translate(-227.871 -702.8)" fill="#ee7331"/>
      <path id="Path_49" data-name="Path 49" d="M625.35,20.945a.168.168,0,0,1-.029-.009h0c.022.01.034.012.03.009" transform="translate(-613.659 -20.546)" fill="#ee7331"/>
      <path id="Path_50" data-name="Path 50" d="M380.168,14.3A4.686,4.686,0,0,0,382.8,16a5.017,5.017,0,0,0,1.746.095,4.041,4.041,0,0,0,1.573-.5,3.015,3.015,0,0,0,.588-.453,3.275,3.275,0,0,0,.721-1.242,6.148,6.148,0,0,0,.307-1.489,8.733,8.733,0,0,0-.025-1.58,11.149,11.149,0,0,0-.277-1.648,7.92,7.92,0,0,0-1.158-2.663,3.932,3.932,0,0,0-1.831-1.483,3.158,3.158,0,0,0-2.917.4,4.152,4.152,0,0,0-.944.97,8.464,8.464,0,0,0-.773,1.461,7.657,7.657,0,0,0-.71,3.621,5.305,5.305,0,0,0,1.074,2.808m.116-5.674a10.738,10.738,0,0,1,.738-1.644,4.676,4.676,0,0,1,.726-1.02,3.5,3.5,0,0,1,.485-.425,3.08,3.08,0,0,1,.3-.188q.075-.041.152-.078l.048-.022.022-.01.063-.025q.081-.03.163-.055c.016,0,.1-.025.037-.011l.092-.02c.017,0,.079-.023.093-.016s-.068.007-.025,0l.041,0A.7.7,0,0,0,383.3,5.1c-.094.021-.008,0,.027,0h.041l.126.012.05.008q.063.011.125.025h0a.115.115,0,0,1,.027.008l.031.007q.063.018.126.04l.107.039.037.015.042.019a3.059,3.059,0,0,1,.457.26c.081.055.132.094.2.146s.143.121.211.185a4.507,4.507,0,0,1,.4.43,6.98,6.98,0,0,1,1.211,2.383,10.845,10.845,0,0,1,.467,3.126,6.784,6.784,0,0,1-.145,1.408,4.461,4.461,0,0,1-.486,1.338,2.454,2.454,0,0,1-.94.935,2.668,2.668,0,0,1-.623.265l-.078.022-.047.012c-.055.013-.109.025-.164.035l-.094.017-.039.006-.071.009-.1.009-.1.007h-.01c-.061-.006-.127,0-.188,0l-.071,0H383.8q-.1-.006-.192-.016l-.08-.009-.032,0q-.095-.015-.189-.034l-.08-.017-.053-.012-.013,0-.054-.015-.1-.031a3.474,3.474,0,0,1-.641-.268,4.356,4.356,0,0,1-1.147-.882,5.1,5.1,0,0,1-1.274-2.546,6.772,6.772,0,0,1,.344-3.411" transform="translate(-372.008 -4.761)" fill="#ee7331"/>
      <path id="Path_51" data-name="Path 51" d="M5.371,462.165A4.274,4.274,0,0,0,8.3,460.932a3.048,3.048,0,0,0,.44-.6,3.39,3.39,0,0,0,.351-1.5,6.3,6.3,0,0,0-.167-1.588,9.6,9.6,0,0,0-.53-1.587,10.868,10.868,0,0,0-.753-1.469,7.638,7.638,0,0,0-1.905-2.163,4.116,4.116,0,0,0-2.362-.872,2.985,2.985,0,0,0-1.331.279,2.907,2.907,0,0,0-1.078.945,5.767,5.767,0,0,0-.881,2.695,7.722,7.722,0,0,0,.343,3.7,5.339,5.339,0,0,0,1.837,2.421,4.949,4.949,0,0,0,3.111.971m-.31-.4-.08,0H4.948q-.181-.016-.361-.047l-.1-.018-.058-.012-.052-.013-.093-.024q-.179-.049-.353-.112l-.089-.034h0l-.02-.008q-.088-.037-.174-.077-.166-.078-.326-.168-.077-.044-.152-.09l-.069-.043-.034-.022-.039-.026-.013-.009-.033-.023-.077-.055q-.076-.056-.15-.115a5.122,5.122,0,0,1-.527-.484,4.51,4.51,0,0,1-.439-.535,5.2,5.2,0,0,1-.374-.617,6.616,6.616,0,0,1-.634-3.345,10.924,10.924,0,0,1,.242-1.792q.023-.108.048-.215l.021-.089h0l0-.018q.033-.118.072-.234a4.214,4.214,0,0,1,.219-.52,3.862,3.862,0,0,1,.316-.525q.045-.063.094-.124l0,0,0,0,.023-.028.055-.064a2.813,2.813,0,0,1,.232-.231q.059-.052.122-.1l.068-.051.03-.021h0a2.324,2.324,0,0,1,.293-.161l.04-.017.058-.021c.049-.017.1-.032.149-.045l.055-.014h0c.039-.008.078-.015.118-.021s.08-.011.121-.015l.026,0h.02c.08,0,.16,0,.24,0l.043,0q.066.007.132.017l.123.022h.007l.052.012q.129.033.256.076l.123.045.006,0,.066.028a4.147,4.147,0,0,1,.506.266l.121.077c.02.013.054.037.013.009l.074.051q.121.086.237.179a6.142,6.142,0,0,1,.482.428,7.262,7.262,0,0,1,.878,1.044,10.94,10.94,0,0,1,1.4,2.837,5.654,5.654,0,0,1,.244,2.941,2.485,2.485,0,0,1-.232.624,2.457,2.457,0,0,1-.389.536,3.089,3.089,0,0,1-.258.241q-.066.055-.134.106l-.064.047-.032.023-.009.006-.008.005a4.139,4.139,0,0,1-.625.329l-.039.015-.076.028q-.09.032-.181.059t-.17.048l-.093.023h0l-.026.005q-.18.036-.363.057l-.081.008-.045,0c-.054,0-.109.005-.163.006s-.117,0-.175,0" transform="translate(0 -442.74)" fill="#ee7331"/>
      <path id="Path_52" data-name="Path 52" d="M1117.8,32.39l-.018.007-.006,0,.024-.009" transform="translate(-1096.928 -31.786)" fill="#ee7331"/>
      <path id="Path_53" data-name="Path 53" d="M922.738,9.885a2.892,2.892,0,0,0,.435.575,3.919,3.919,0,0,0,3.006.99,4.734,4.734,0,0,0,2.989-1.322,5.327,5.327,0,0,0,1.465-2.672,6.719,6.719,0,0,0-.283-3.541,10.788,10.788,0,0,0-.765-1.744,5.061,5.061,0,0,0-.781-1.108A3.635,3.635,0,0,0,927.538.19a2.855,2.855,0,0,0-1.526-.15,3.581,3.581,0,0,0-2.051,1.195,6.875,6.875,0,0,0-1.342,2.444,11.075,11.075,0,0,0-.539,3.309,6.77,6.77,0,0,0,.142,1.454,4.772,4.772,0,0,0,.517,1.443m2.9,1.131h0m2.395-.714h0m-5.14-4.09a11.316,11.316,0,0,1,.246-1.6A8.025,8.025,0,0,1,924.2,2.028c.057-.088.118-.173.179-.259l.008-.011.008-.01.049-.063q.048-.062.1-.122a4.421,4.421,0,0,1,.394-.414q.1-.095.212-.181L925.226.9,925.26.88l.058-.039q.11-.073.227-.137.055-.03.111-.058l.052-.025.021-.009-.012,0,.018-.007L925.752.6c.068-.025.134-.054.2-.076q.058-.019.117-.035L926.1.483l.021,0c.08-.016.16-.029.241-.038l.03,0h.008q.069,0,.137,0l.094,0h.009c.063.008.125.016.187.029l.031.006.071.02q.089.026.176.06l.067.027h0l.036.017q.083.039.163.084t.146.087l.065.043.032.022.032.022.043.032.071.056q.069.056.136.115.121.107.232.224t.212.238c.031.037.061.076.091.114l.008.011.011.014.043.06a8.21,8.21,0,0,1,.744,1.385,7.619,7.619,0,0,1,.735,3.44,5.122,5.122,0,0,1-.929,2.724,4.556,4.556,0,0,1-.434.522,4.614,4.614,0,0,1-.549.487l-.031.023-.007.005-.067.047q-.079.054-.161.1-.158.1-.325.183-.081.041-.163.079c-.021.01-.077.033-.024.011l-.1.043q-.165.065-.335.115l-.092.026-.033.009-.074.017-.094.019q-.183.034-.368.052l-.033,0-.07,0q-.1,0-.193,0t-.179,0l-.067,0c-.016,0-.033,0-.048,0q-.183-.018-.364-.053l-.08-.016h0l-.022,0-.012,0h0c-.056-.015-.113-.03-.168-.047s-.11-.035-.165-.055L924.7,10.8l-.037-.015-.032-.013-.048-.022-.071-.035q-.082-.041-.162-.087t-.145-.09l-.076-.052h0l-.023-.017a2.767,2.767,0,0,1-.266-.233,2.629,2.629,0,0,1-.2-.232l-.032-.046-.049-.073q-.049-.075-.093-.153a3.959,3.959,0,0,1-.292-.652,5.8,5.8,0,0,1-.29-1.392,8.446,8.446,0,0,1,.009-1.48" transform="translate(-904.885 0.002)" fill="#ee7331"/>
      <path id="Path_54" data-name="Path 54" d="M1084.766,586.4h0a.272.272,0,0,1,.034.008.064.064,0,0,0-.035-.008" transform="translate(-1064.538 -575.461)" fill="#ee7331"/>
      <path id="Path_55" data-name="Path 55" d="M1287.795,460.711a10.79,10.79,0,0,0-.244-1.893,4.858,4.858,0,0,0-.392-1.167,3.371,3.371,0,0,0-.789-1.053,2.6,2.6,0,0,0-1.271-.588,3.854,3.854,0,0,0-2.523.445,6.406,6.406,0,0,0-1.99,1.841,10.891,10.891,0,0,0-1.5,2.946,5.783,5.783,0,0,0-.277,3.1,2.76,2.76,0,0,0,.254.68,3.64,3.64,0,0,0,2.485,1.664,5.1,5.1,0,0,0,3.357-.429,5.184,5.184,0,0,0,2.15-2.091,6.635,6.635,0,0,0,.742-3.452m-5.3,5.86.036,0a.141.141,0,0,1-.036,0m4.183-3.308a5.2,5.2,0,0,1-1.673,2.384,4.621,4.621,0,0,1-1.224.7c-.091.034-.225.077-.335.107-.058.016-.116.029-.174.044h0l-.028.006-.109.021c-.06.011-.119.019-.179.028h-.019l-.112.011-.08.006h-.013c-.059,0-.121,0-.181,0h-.019l-.081,0-.095-.008-.049,0-.075-.01-.081-.012c-.057-.009-.113-.02-.169-.032l-.059-.014-.079-.02q-.092-.024-.183-.053a2.833,2.833,0,0,1-.308-.114,3.323,3.323,0,0,1-1.144-.786,2.794,2.794,0,0,1-.4-.555,3.2,3.2,0,0,1-.323-1.413,6.273,6.273,0,0,1,.152-1.522,8.975,8.975,0,0,1,.478-1.472,10.8,10.8,0,0,1,.711-1.434,7.774,7.774,0,0,1,1.783-2.123,4.379,4.379,0,0,1,.972-.6l.123-.051.049-.019.042-.015q.126-.044.256-.077l.057-.014h.007c.044-.009.088-.017.132-.024l.053-.008.122-.01h.1l.11.009.064.01c.036.006.074.019.111.021h-.011l.015,0,.064.017a1.357,1.357,0,0,1,.271.1,2.548,2.548,0,0,1,.958.845,5.507,5.507,0,0,1,.838,2.535,7.777,7.777,0,0,1-.259,3.543" transform="translate(-1254.856 -447.455)" fill="#ee7331"/>
      <path id="Path_56" data-name="Path 56" d="M1603.66,469.839c-.026,0-.054,0,0,0" transform="translate(-1573.726 -461.075)" fill="#ee7331"/>
    </g>
  </g>
</svg>
