<svg id="Group_18" data-name="Group 18" xmlns="http://www.w3.org/2000/svg" xmlns:xlink="http://www.w3.org/1999/xlink" width="317.661" height="335.712" viewBox="0 0 317.661 335.712">
  <defs>
    <clipPath id="clip-path">
      <rect id="Rectangle_48" data-name="Rectangle 48" width="317.661" height="335.712" fill="none"/>
    </clipPath>
  </defs>
  <g id="Group_17" data-name="Group 17" clip-path="url(#clip-path)">
    <path id="Path_27" data-name="Path 27" d="M133.043,277.2l-15.2-13.508c-15.2-13.508-8.442,27.015,0,28.7s20.3,4.272,22.794-.844c19.282-39.408,9.422-207.881-56.056-235.808-.439-.2-.895-.388-1.351-.574A36.771,36.771,0,0,0,69.811,54.11c-16.344,1.52-42.768,13.845-50.738,75.355,0,0,1.688,27.015-18.573,42.211" transform="translate(167.397 37.132)" fill="none" stroke="#2c4943" stroke-miterlimit="10" stroke-width="1"/>
    <path id="Path_28" data-name="Path 28" d="M41.058,219.5c-1.942-17.475-8.7-66.542-25.479-93.489" transform="translate(250.299 86.75)" fill="none" stroke="#2c4943" stroke-miterlimit="10" stroke-width="1"/>
    <path id="Path_29" data-name="Path 29" d="M295.7,126.009c-3.748,29.109-23.25,92.8-120.774,118.461,0,0-131.7,10.131-143.518-3.377s121.568-33.769,121.568-33.769,10.131-11.819-5.065-8.442c-13.288,2.953-111.437,25.327-109.749,15.2,2.111-12.68,21.95-18.573,87.8-33.769,0,0,23.554-9.151,19.957-30.932" transform="translate(-29.825 86.75)" fill="none" stroke="#2c4943" stroke-miterlimit="10" stroke-width="1"/>
    <path id="Path_30" data-name="Path 30" d="M106.752,205.463v-.017c3.613-14.4,8.189-38.277-1.249-38.277-12.224,0-21.68,12.444-24.618,47.378" transform="translate(69.993 115.087)" fill="#172627"/>
    <path id="Path_31" data-name="Path 31" d="M60.873,162.113c-7.6,26.086-16.564,53.473-20.954,54.351-8.442,1.688-25.327-10.131-18.573-25.327,0,0,11.819,3.377,13.508,10.131l-2.533-54.2" transform="translate(223.375 101.249)" fill="none" stroke="#2c4943" stroke-miterlimit="10" stroke-width="1"/>
    <path id="Path_32" data-name="Path 32" d="M211.8,165.136s1.688-69.226-23.638-70.915c-21.173-1.412-36.447,8.977-47.791,18.343a18.19,18.19,0,0,1-14.316,3.914c-12.429-1.881-35.074-.861-37.511,6.446-3.377,10.131,16.884,27.015,74.292,18.573,0,0,0,13.508-47.276,16.884,0,0-20.261,18.573,60.784,11.819" transform="translate(-43.057 64.777)" fill="none" stroke="#2c4943" stroke-miterlimit="10" stroke-width="1"/>
    <path id="Path_33" data-name="Path 33" d="M142.051,120.627C131.7,133,114.917,146.173,95.618,134.809c-8.071-4.745-10-24.871,24.466-40.641h.017c16.884-2.651,21.95,26.458,21.95,26.458" transform="translate(22.47 64.712)" fill="#162629"/>
    <path id="Path_34" data-name="Path 34" d="M90.329,129.5s26.124-5.266,24.428-37.478c-1.688-32.08-6.676-34.9-16.884-33.769-15.2,1.688,2.3,51.937-10.668,63.958s3.124,7.289,3.124,7.289" transform="translate(64.115 39.966)" fill="#162629"/>
    <path id="Path_35" data-name="Path 35" d="M140.121,117.359s-19.441-7.451-12.687-29.4,0-30.392-6.754-28.7S87.657,78.069,121.9,121" transform="translate(0.787 40.649)" fill="none" stroke="#2c4943" stroke-miterlimit="10" stroke-width="1"/>
    <path id="Path_36" data-name="Path 36" d="M151.2,108.923a6.754,6.754,0,1,0,6.754-6.754,6.754,6.754,0,0,0-6.754,6.754" transform="translate(-102.337 70.338)" fill="#162629"/>
    <path id="Path_37" data-name="Path 37" d="M65.229,52.627c1.3,14.3,4.609,24.6-2.448,38.615A36.771,36.771,0,0,1,76.2,92.306c.456.186.912.371,1.351.574,9.016-11.5,22.71-31.506,18.066-41.941a8.154,8.154,0,0,0-6.754,0c-2.735,1.368-3.259,1.621-3.36,1.672.3-.946,11.532-35.305-8.459-25.31l-3.377,1.688S71.983-4.78,58.475,8.728c0,0,0,3.377-5.065,1.688S33.148-9.845,28.083,7.039s35.457,27.1,37.146,45.588" transform="translate(174.427 0)" fill="#162522"/>
    <path id="Path_38" data-name="Path 38" d="M70.079,94.146c5.568,2.347,16.884,10.131,5.065,23.638S54.883,131.292,53.194,144.8s-16.884,13.508-21.95,8.442-5.065-21.95,8.442-28.7c0,0-.177-43.275,30.392-30.392" transform="translate(189.839 63.165)" fill="#142423"/>
    <path id="Path_39" data-name="Path 39" d="M72.648,99.8c3.595,5.992,5.065,30.392-11.819,25.327S67.583,91.356,72.648,99.8" transform="translate(150.124 67.643)" fill="#142423"/>
    <path id="Path_40" data-name="Path 40" d="M113.472,109.07c-2.237,2.985-2.539,6.538-.674,7.936s5.19.113,7.429-2.872,2.538-6.536.674-7.936-5.192-.113-7.429,2.872" transform="translate(7.149 72.723)" fill="#f5f1ec"/>
    <path id="Path_41" data-name="Path 41" d="M123.472,105.07c-2.237,2.985-2.539,6.538-.674,7.936s5.19.113,7.429-2.872,2.538-6.536.674-7.936-5.192-.113-7.429,2.872" transform="translate(-19.736 69.969)" fill="#162629"/>
    <path id="Path_42" data-name="Path 42" d="M176.236,135.5c-8.679-11.616-22.9-15.551-37.129-7.649-15.2,8.442,3.377,13.508,6.754,10.131,1.959-1.959,12.495-1.638,20.954-1.03Z" transform="translate(-83.491 85.178)" fill="#162629"/>
  </g>
</svg>
