<svg id="Group_98" data-name="Group 98" xmlns="http://www.w3.org/2000/svg" xmlns:xlink="http://www.w3.org/1999/xlink" width="319.587" height="187.645" viewBox="0 0 319.587 187.645">
  <defs>
    <clipPath id="clip-path">
      <rect id="Rectangle_92" data-name="Rectangle 92" width="319.587" height="187.645" fill="none"/>
    </clipPath>
  </defs>
  <g id="Group_97" data-name="Group 97" clip-path="url(#clip-path)">
    <path id="Path_102" data-name="Path 102" d="M317.587,45.06a43.057,43.057,0,1,1-.46-6.28A43.055,43.055,0,0,1,317.587,45.06Z" fill="none" stroke="#d7fca1" stroke-miterlimit="10" stroke-width="4"/>
    <path id="Path_103" data-name="Path 103" d="M265.827,19a43.074,43.074,0,0,1-31.51,41.5,43.105,43.105,0,0,1,28.66-56.93A42.932,42.932,0,0,1,265.827,19Z" fill="none" stroke="#d7fca1" stroke-miterlimit="10" stroke-width="4"/>
    <path id="Path_104" data-name="Path 104" d="M317.587,45.06a43.1,43.1,0,0,1-51.16,42.3,42.013,42.013,0,0,1-.46-6.28,43.1,43.1,0,0,1,51.16-42.3A43.384,43.384,0,0,1,317.587,45.06Z" fill="none" stroke="#d7fca1" stroke-miterlimit="10" stroke-width="4"/>
    <path id="Path_105" data-name="Path 105" d="M79.673,126.525S158.533,56.7,215.214,63.272" fill="none" stroke="#d7fca1" stroke-miterlimit="10" stroke-width="4"/>
    <path id="Path_106" data-name="Path 106" d="M1.634,186.492S90.352,60.808,211.107,50.129" fill="none" stroke="#d7fca1" stroke-miterlimit="10" stroke-width="4"/>
  </g>
</svg>
