<svg xmlns="http://www.w3.org/2000/svg" width="61.474" height="55.162" viewBox="0 0 61.474 55.162">
  <path id="Path_63" data-name="Path 63" d="M49.634,24.607H49.5a7.038,7.038,0,0,1-6.387-4.368,3.533,3.533,0,0,0-3.271-2.211H16.83a3.533,3.533,0,0,0-3.271,2.211,7.038,7.038,0,0,1-6.387,4.368H7.043A7.079,7.079,0,0,1,0,17.573a6.967,6.967,0,0,1,.764-3.2,7.107,7.107,0,0,1,1.6-2.068,7.106,7.106,0,0,1-1.6-2.068,7.015,7.015,0,0,1,1.356-8.21A7.024,7.024,0,0,1,13.559,4.369,3.533,3.533,0,0,0,16.83,6.58H39.847a3.533,3.533,0,0,0,3.271-2.211A7.048,7.048,0,0,1,56.677,7.034a6.967,6.967,0,0,1-.764,3.2,7.107,7.107,0,0,1-1.6,2.068,7.107,7.107,0,0,1,1.6,2.068,7.061,7.061,0,0,1-6.278,10.236m-32.8-7.5H39.847a4.454,4.454,0,0,1,4.127,2.784,6.123,6.123,0,0,0,11.779-2.314,6.051,6.051,0,0,0-.664-2.781,6.176,6.176,0,0,0-1.78-2.118.462.462,0,0,1,0-.739,6.175,6.175,0,0,0,1.78-2.118A6.136,6.136,0,0,0,49.522.926,6.114,6.114,0,0,0,43.974,4.72,4.454,4.454,0,0,1,39.847,7.5H16.83A4.454,4.454,0,0,1,12.7,4.72,6.123,6.123,0,0,0,.924,7.035a6.05,6.05,0,0,0,.664,2.781,6.175,6.175,0,0,0,1.78,2.118.462.462,0,0,1,0,.739,6.177,6.177,0,0,0-1.78,2.118,6.136,6.136,0,0,0,5.567,8.89A6.114,6.114,0,0,0,12.7,19.887,4.454,4.454,0,0,1,16.83,17.1" transform="matrix(0.799, 0.602, -0.602, 0.799, 15.509, 0.7)" fill="#90bb87" stroke="#f3b747" stroke-width="1"/>
</svg>
